{"title":"Lucifer S02E01 720p WEB-DL HEVC 2CH x265","uid":15874555,"size":345513436,"categoryP":"video","categoryS":"hd___tv_shows","magnet":"?xt=urn:btih:4f1b916e8ce7ce9fdd77fb8228534fb0ec6c210d&amp;dn=Lucifer+S02E01+720p+WEB-DL+HEVC+2CH+x265&amp;tr=udp%3A%2F%2Ftracker.leechers-paradise.org%3A6969&amp;tr=udp%3A%2F%2Fzer0day.ch%3A1337&amp;tr=udp%3A%2F%2Fopen.demonii.com%3A1337&amp;tr=udp%3A%2F%2Ftracker.coppersurfer.tk%3A6969&amp;tr=udp%3A%2F%2Fexodus.desync.com%3A6969","seeders":2,"leechers":2,"uploader":"nayhtut","files":1,"time":1474481416,"description":"[Screenshots Gallery Link]\r\n\r\n[http://postimg.org/gallery/36gww30ge]\r\n\r\n\r\nSource: Lucifer S02E01 720p WEB-DL DD5 1 H264-VietHD (1.37 GB)\r\n\r\n \r\nComplete name : Lucifer.S02E01.720p.WEB-DL.HEVC.2CH.x265.mkv\r\nFormat                                   : Matroska\r\nFormat version                           : Version 4 / Version 2\r\nFile size                                : 326 MiB\r\nDuration                                 : 44mn 7s\r\nOverall bit rate                         : 1 031 Kbps\r\nWriting application                      : Lavf57.25.100\r\nWriting library                          : Lavf57.25.100\r\n\r\nVideo\r\n\r\nID                                       : 1\r\nFormat                                   : V_MPEGH/ISO/HEVC\r\nCodec ID                                 : V_MPEGH/ISO/HEVC\r\nDuration                                 : 44mn 7s\r\nBit rate                                 : 819 Kbps\r\nWidth                                    : 1 280 pixels\r\nHeight                                   : 716 pixels\r\nDisplay aspect ratio                     : 16:9\r\nFrame rate                               : 25.000 fps\r\nBits/(Pixel*Frame)                       : 0.036\r\nStream size                              : 258 MiB (79%)\r\nWriting library                          : Lavc57.48.101 libx265\r\nLanguage                                 : English\r\nDefault                                  : Yes\r\nForced                                   : No\r\nDURATION                                 : 00:44:07.891000000\r\n\r\nAudio\r\nID                                       : 2\r\nFormat                                   : AC-3\r\nFormat/Info                              : Audio Coding 3\r\nMode extension                           : CM (complete main)\r\nFormat settings, Endianness              : Big\r\nCodec ID                                 : A_AC3\r\nDuration                                 : 44mn 7s\r\nBit rate mode                            : Constant\r\nBit rate                                 : 192 Kbps\r\nChannel(s)                               : 2 channels\r\nChannel positions                        : Front: L R\r\nSampling rate                            : 48.0 KHz\r\nBit depth                                : 16 bits\r\nCompression mode                         : Lossy\r\nStream size                              : 60.6 MiB (19%)\r\nWriting library                          : Lavc57.24.102 ac3\r\nLanguage                                 : English\r\nDefault                                  : Yes\r\nForced                                   : No\r\nDURATION                                 : 00:44:07.935000000\r\n\r\nText\r\nID                                       : 3\r\nFormat                                   : ASS\r\nCodec ID                                 : S_TEXT/ASS\r\nCodec ID/Info                            : Advanced Sub Station Alpha\r\nLanguage                                 : English\r\nDefault                                  : Yes","torrent":{"xt":"urn:btih:4f1b916e8ce7ce9fdd77fb8228534fb0ec6c210d","amp;dn":"Lucifer+S02E01+720p+WEB-DL+HEVC+2CH+x265","amp;tr":["udp%3A%2F%2Ftracker.leechers-paradise.org%3A6969","udp%3A%2F%2Fzer0day.ch%3A1337","udp%3A%2F%2Fopen.demonii.com%3A1337","udp%3A%2F%2Ftracker.coppersurfer.tk%3A6969","udp%3A%2F%2Fexodus.desync.com%3A6969"],"infoHash":"4f1b916e8ce7ce9fdd77fb8228534fb0ec6c210d","infoHashBuffer":{"type":"Buffer","data":[79,27,145,110,140,231,206,159,221,119,251,130,40,83,79,176,236,108,33,13]},"announce":[],"urlList":[]}}